Coordinates
version=1
nRows=16
nColumns=33
inDegrees=yes

Units are S.I. units (second, meters, Newtons, ...)
Angles are in degrees.

endheader
time	ground_thorax_rot_x	ground_thorax_rot_y	ground_thorax_rot_z	ground_thorax_tx	ground_thorax_ty	ground_thorax_tz	clav_prot_r	clav_elev_r	scapula_abduction_r	scapula_elevation_r	scapula_upward_rot_r	scapula_winging_r	shoulder_elv_r	plane_of_elev_r	axial_rot_r	elbow_flexion_r	pro_sup_r	wrist_flex_r	wrist_dev_r	clav_prot_l	clav_elev_l	scapula_abduction_l	scapula_elevation_l	scapula_upward_rot_l	scapula_winging_l	shoulder_elv_l	plane_of_elev_l	axial_rot_l	elbow_flexion_l	pro_sup_l	wrist_flex_l	wrist_dev_l
      5.08000000	     -0.87089869	      2.37962433	     11.86277581	     -0.10930307	      1.03094581	      0.01547690	     11.44030256	    -14.14185504	     22.46295843	     -8.63282746	      5.08911729	     -3.89388807	    -18.11827900	    -70.09385748	    116.59157011	    -76.28104798	   -160.88807847	      8.46124648	     -0.72582153	     16.99726907	     -5.63814022	    -24.89290090	    -15.96780528	    -35.07156087	      4.86764734	     58.90696054	    -18.48875132	      5.90342940	     59.06229771	      9.83958860	     17.40810502	    -13.21112706
      5.09000000	     -0.86693500	      2.21794330	     11.86110113	     -0.10952431	      1.03173025	      0.01546906	     11.18374299	    -14.30429852	     21.52713518	     -8.41339919	      4.11443069	     -3.44075421	    -19.88901337	    -71.05110851	    115.21011127	    -77.91191610	   -160.96420827	     10.27401112	     -3.22661460	     16.40698580	     -5.35538414	    -23.87065526	    -16.24622577	    -35.02419287	      4.35571332	     59.24017021	    -20.19923509	      4.92142542	     60.91168862	      9.77829504	     16.13539097	    -14.02373133
      5.10000000	     -0.60827388	      2.01290053	     12.02671095	     -0.11014861	      1.03150558	      0.01538506	     10.92292066	    -13.65971620	     20.79831825	     -7.60657797	      3.52403799	     -3.48464837	    -20.75403342	    -72.01804050	    115.23674074	    -79.49828092	   -160.94641836	     10.86086181	     -3.60688348	     16.14623845	     -4.80251730	    -23.50287136	    -17.01878023	    -35.54661567	      4.07296262	     58.90673961	    -21.08365427	      4.78903165	     62.63241730	      9.64946641	     15.96682023	    -14.44775692
      5.11000000	     -0.54106459	      1.95186864	     12.01327214	     -0.11048981	      1.03211487	      0.01542920	     10.65691123	    -13.76185098	     19.78886210	     -7.26763286	      2.40663537	     -3.02643040	    -22.38367784	    -72.92751894	    113.83005192	    -80.85776725	   -160.67447600	     13.07066705	     -6.36815433	     15.59205452	     -4.50639825	    -22.52169785	    -17.28945549	    -35.45534379	      3.58430152	     59.27816427	    -22.72412903	      3.52798423	     64.20005919	      9.94416627	     14.70146257	    -15.65322472
      5.12000000	     -0.37977133	      1.71983320	     11.92438090	     -0.11036134	      1.03264308	      0.01530679	     10.12629731	    -13.53491976	     18.77740815	     -6.97245662	      2.14996012	     -2.72641579	    -24.59052425	    -74.15882556	    112.63062495	    -81.91302872	   -160.45228998	     15.24444177	     -8.59404044	     14.93525192	     -3.99808313	    -21.33785828	    -17.72799098	    -35.28421139	      3.00245144	     59.12303466	    -24.04381999	      2.91729796	     65.45306392	     10.22714563	     13.47130749	    -16.88410646
      5.13000000	     -0.35564003	      1.39136905	     11.91495831	     -0.11064222	      1.03312685	      0.01519836	      9.95590264	    -13.32727048	     18.25275642	     -6.59099300	      1.66131766	     -2.61762984	    -26.91703242	    -74.91268720	    111.01430111	    -82.65580879	   -160.04371767	     17.28472157	    -10.39795836	     14.40827958	     -3.59062695	    -20.40266856	    -18.14667123	    -35.28421268	      2.52505492	     59.11598525	    -25.66188942	      2.43585229	     66.89177066	     10.52344385	     12.46345414	    -18.17622984
      5.14000000	     -0.07338705	      1.18362109	     12.13175649	     -0.11126345	      1.03283080	      0.01514032	      9.72835446	    -12.56369697	     17.52979001	     -5.61432543	      0.96136535	     -2.69052666	    -27.69712525	    -75.72730746	    110.97009906	    -83.73186073	   -159.89813359	     17.82226753	    -10.72545498	     14.18038337	     -3.12302060	    -20.07725624	    -18.85265557	    -35.81107775	      2.25398811	     58.75428589	    -26.57868537	      2.23262850	     68.06687442	     10.51376812	     12.35565202	    -18.55293671
      5.15000000	     -0.04752629	      1.02176053	     12.01925274	     -0.11142963	      1.03344205	      0.01504294	      9.40834388	    -12.51806787	     16.66864781	     -5.30386469	      0.28958744	     -2.35638292	    -29.75990220	    -76.49779516	    109.38426885	    -84.05723958	   -158.62487241	     21.11816241	    -13.90637870	     13.62858535	     -2.76668590	    -19.06178602	    -19.16060398	    -35.66951363	      1.76474019	     58.97527416	    -28.13011250	      1.28311802	     69.07185669	     11.33501022	     10.91589150	    -20.43140363
      5.16000000	      0.19699095	      0.77523520	     12.25465493	     -0.11197130	      1.03322746	      0.01495892	      9.16780821	    -11.77609593	     15.95197596	     -4.36413653	     -0.35136514	     -2.39197774	    -30.56384252	    -77.26362180	    109.33317216	    -84.75950641	   -158.42972645	     21.66752298	    -14.25967219	     13.39043636	     -2.33093970	    -18.71028943	    -19.83363972	    -36.17530467	      1.47296186	     58.57235065	    -29.11434387	      1.12246313	     69.95803079	     11.38744917	     10.75437083	    -20.81695232
      5.17000000	      0.25554870	      0.67719032	     12.08454621	     -0.11200490	      1.03378109	      0.01489242	      8.81498584	    -11.61836021	     15.10358995	     -4.00304359	     -0.88437434	     -2.11036899	    -32.71361230	    -77.85099131	    107.58851770	    -84.64776810	   -156.80210473	     25.43116805	    -17.64412506	     12.83154291	     -1.95549782	    -17.62842411	    -20.06366765	    -35.81873270	      0.99392031	     58.69160424	    -30.59821702	      0.02183823	     70.55952341	     12.58063023	      9.05036718	    -23.03711720
      5.18000000	      0.41017078	      0.37496032	     12.29914232	     -0.11253012	      1.03363632	      0.01476393	      8.60121249	    -10.96120777	     14.47246720	     -3.17164117	     -1.43338761	     -2.11900378	    -33.50192556	    -78.53644255	    107.57960394	    -84.95485808	   -156.58200025	     25.88419718	    -17.91489846	     12.60872297	     -1.55206899	    -17.30018047	    -20.71227844	    -36.33284217	      0.70435296	     58.28268574	    -31.64161119	     -0.02631496	     71.22133446	     12.65586807	      8.87572921	    -23.38361050
      5.19000000	      0.60421841	      0.29764842	     12.36606269	     -0.11278692	      1.03404599	      0.01471127	      8.33738956	    -10.52860515	     13.73871068	     -2.52289592	     -2.03259522	     -1.98017336	    -35.03112792	    -78.99178847	    106.34883887	    -84.63524257	   -155.30022127	     28.48224501	    -20.08178888	     12.20642674	     -1.25067790	    -16.54419582	    -20.99943333	    -36.26205237	      0.33448094	     58.13249622	    -32.81711652	     -0.92237506	     71.35671236	     13.67590639	      7.67238572	    -24.99999983
      5.20000000	      0.70499350	      0.08636358	     12.33063171	     -0.11283292	      1.03430746	      0.01446395	      8.03271742	    -10.11905768	     13.15004134	     -2.10658588	     -2.14064766	     -1.90123879	    -37.46276225	    -79.56168474	    104.58681426	    -84.01670763	   -153.57370551	     31.71377723	    -22.63614386	     11.70186501	     -0.83439628	    -15.55650873	    -21.31990084	    -36.01109644	     -0.11906983	     57.90151509	    -34.11920944	     -1.81225832	     71.82986437	     15.02031014	      5.92249055	    -24.99999983
      5.21000000	      0.83630334	     -0.08847911	     12.35236173	     -0.11313965	      1.03425371	      0.01449016	      8.00242097	     -9.53597452	     13.02179767	     -1.52306914	     -2.24828106	     -2.06713057	    -40.36583296	    -79.67558412	    102.21556544	    -83.46139510	   -152.14564787	     33.97701954	    -24.24672231	     11.33512004	     -0.53259784	    -14.86561145	    -21.63375015	    -35.99705311	     -0.46200410	     57.81277891	    -35.36400414	     -2.74541089	     72.19033739	     16.11714120	      4.28895817	    -24.99999983
      5.22000000	      0.82428447	     -0.33779217	     12.32217702	     -0.11364271	      1.03440616	      0.01420739	      7.88794494	     -9.18925329	     12.62714179	     -1.03020306	     -2.64984032	     -2.01495547	    -40.88566882	    -79.96130458	    102.20237827	    -82.96081594	   -151.98096461	     34.09983952	    -24.30587305	     11.16430138	     -0.27858346	    -14.62378546	    -22.12631363	    -36.47824899	     -0.70218833	     57.50181615	    -36.22198754	     -2.56448664	     72.43737337	     16.14746241	      4.16575234	    -24.99999983
      5.23000000	      0.92822982	     -0.44371016	     12.32987082	     -0.11373161	      1.03433406	      0.01418368	      7.70919830	     -8.74288965	     12.26187339	     -0.59209445	     -2.71550186	     -2.02523756	    -43.46449143	    -80.08010348	     99.64623301	    -82.08499143	   -149.40041414	     37.84629648	    -24.99999983	     10.80595883	      0.16663905	    -13.92236477	    -22.57787486	    -36.45029327	     -1.06930534	     57.40312981	    -37.02467623	     -3.63613789	     72.31704710	     17.86315561	      2.18164700	    -24.99999983
